<?xml version="1.0" standalone="no"?><!DOCTYPE svg PUBLIC "-//W3C//DTD SVG 1.1//EN" "http://www.w3.org/Graphics/SVG/1.1/DTD/svg11.dtd"><svg class="icon" width="200px" height="200.00px" viewBox="0 0 1024 1024" version="1.1" xmlns="http://www.w3.org/2000/svg"><path d="M860.16 249.856c-16.384-20.48-40.96-30.72-67.584-30.72H331.776C325.632 176.128 288.768 143.36 245.76 143.36H167.936C155.648 143.36 143.36 155.648 143.36 169.984s12.288 26.624 24.576 26.624H245.76c18.432 0 34.816 14.336 34.816 32.768l32.768 389.12c4.096 45.056 40.96 79.872 86.016 79.872h366.592c14.336 0 26.624-12.288 26.624-26.624s-12.288-26.624-26.624-26.624H399.36c-18.432 0-34.816-14.336-34.816-32.768l-28.672-344.064h456.704c10.24 0 20.48 4.096 26.624 12.288 6.144 8.192 10.24 18.432 8.192 28.672l-38.912 212.992c-4.096 16.384-18.432 28.672-34.816 28.672H432.128c-14.336 0-26.624 12.288-26.624 26.624s12.288 26.624 26.624 26.624h323.584c43.008 0 77.824-30.72 86.016-71.68L880.64 319.488c4.096-24.576-4.096-49.152-20.48-69.632zM454.656 880.64c-45.056 0-81.92-36.864-81.92-81.92s36.864-81.92 81.92-81.92 81.92 36.864 81.92 81.92-36.864 81.92-81.92 81.92z m0-112.64c-16.384 0-30.72 14.336-30.72 30.72s14.336 30.72 30.72 30.72 30.72-14.336 30.72-30.72-14.336-30.72-30.72-30.72zM686.08 880.64c-45.056 0-81.92-36.864-81.92-81.92s36.864-81.92 81.92-81.92 81.92 36.864 81.92 81.92-36.864 81.92-81.92 81.92z m0-112.64c-16.384 0-30.72 14.336-30.72 30.72s14.336 30.72 30.72 30.72S716.8 815.104 716.8 798.72s-12.288-30.72-30.72-30.72z" fill="#231815" /><path d="M514.048 489.472c-12.288 0-24.576-10.24-24.576-22.528l-10.24-102.4c-2.048-14.336 8.192-26.624 22.528-28.672 14.336-2.048 26.624 8.192 28.672 22.528l10.24 102.4c2.048 14.336-8.192 26.624-22.528 28.672h-4.096zM657.408 489.472H655.36c-14.336-2.048-24.576-14.336-22.528-28.672l10.24-102.4c2.048-14.336 14.336-24.576 28.672-22.528 14.336 2.048 24.576 14.336 22.528 28.672l-10.24 102.4c-2.048 12.288-12.288 22.528-26.624 22.528z" fill="#4C7FFE" /></svg>