<?xml version="1.0" standalone="no"?><!DOCTYPE svg PUBLIC "-//W3C//DTD SVG 1.1//EN" "http://www.w3.org/Graphics/SVG/1.1/DTD/svg11.dtd"><svg class="icon" width="200px" height="200.00px" viewBox="0 0 1024 1024" version="1.1" xmlns="http://www.w3.org/2000/svg"><path d="M276.39 761.35V267.92A25.61 25.61 0 0 1 302 242.34h420a25.62 25.62 0 0 1 25.58 25.58v493.43z" fill="#CCCCCC" /><path d="M722 262.34a5.58 5.58 0 0 1 5.58 5.58v473.43H296.39V267.92a5.58 5.58 0 0 1 5.57-5.58H722m0-40H302a45.58 45.58 0 0 0-45.57 45.58v513.43h511.13V267.92A45.58 45.58 0 0 0 722 222.34z"  /><path d="M780.53 771a52 52 0 0 1-20.45-4.15 73.1 73.1 0 0 0-28.69-5.85H292.61a73.1 73.1 0 0 0-28.69 5.85 52 52 0 0 1-20.45 4.15 52.56 52.56 0 0 1-52.5-52.5v-255a52.5 52.5 0 0 1 105 0v101A36.57 36.57 0 0 0 332.5 601h359a36.57 36.57 0 0 0 36.5-36.51v-101a52.5 52.5 0 0 1 105 0v255A52.56 52.56 0 0 1 780.53 771z" fill="#FFFFFF" /><path d="M780.53 431a32.54 32.54 0 0 1 32.5 32.5v255a32.54 32.54 0 0 1-32.5 32.5 32.21 32.21 0 0 1-12.63-2.55 92.78 92.78 0 0 0-36.51-7.45H292.61a92.78 92.78 0 0 0-36.51 7.45 32.17 32.17 0 0 1-12.63 2.55 32.54 32.54 0 0 1-32.5-32.5v-255a32.5 32.5 0 0 1 65 0v101A56.59 56.59 0 0 0 332.5 621h359a56.59 56.59 0 0 0 56.5-56.51v-101a32.54 32.54 0 0 1 32.5-32.5m0-40a72.5 72.5 0 0 0-72.5 72.5v101A16.53 16.53 0 0 1 691.5 581h-359a16.53 16.53 0 0 1-16.5-16.51v-101a72.5 72.5 0 0 0-145 0v255a72.5 72.5 0 0 0 100.77 66.76 53.46 53.46 0 0 1 20.84-4.25h438.78a53.46 53.46 0 0 1 20.87 4.26 72.15 72.15 0 0 0 28.27 5.74 72.5 72.5 0 0 0 72.5-72.5v-255a72.5 72.5 0 0 0-72.5-72.5z"  /><path d="M754.26 751.66H742a13.88 13.88 0 0 0-13.89 13.88v22.23A13.89 13.89 0 0 0 742 801.66h12.22a13.89 13.89 0 0 0 13.89-13.89v-22.23a13.88 13.88 0 0 0-13.89-13.88zM282.16 751.66h-12.22a13.88 13.88 0 0 0-13.89 13.88v22.23a13.89 13.89 0 0 0 13.89 13.89h12.22a13.89 13.89 0 0 0 13.89-13.89v-22.23a13.88 13.88 0 0 0-13.89-13.88z"  /></svg>