<?xml version="1.0" standalone="no"?><!DOCTYPE svg PUBLIC "-//W3C//DTD SVG 1.1//EN" "http://www.w3.org/Graphics/SVG/1.1/DTD/svg11.dtd"><svg class="icon" width="200px" height="200.00px" viewBox="0 0 1024 1024" version="1.1" xmlns="http://www.w3.org/2000/svg"><path d="M56.888889 341.333333m42.666667 0l0 0q42.666667 0 42.666666 42.666667l0 199.111111q0 42.666667-42.666666 42.666667l0 0q-42.666667 0-42.666667-42.666667l0-199.111111q0-42.666667 42.666667-42.666667Z" fill="#26A51C" /><path d="M512 195.328l337.550222 183.921778L512 563.2 174.449778 379.249778 512 195.328z m227.555556 525.255111c0 53.105778-92.928 113.777778-227.555556 113.777778-134.627556 0-227.555556-60.672-227.555556-113.777778v-195.299555l208.583112 113.777777c5.688889 3.783111 11.377778 3.783111 18.972444 3.783111s13.283556-1.905778 18.972444-3.783111l208.583112-113.777777v195.299555zM132.750222 443.733333l75.832889 41.728v235.121778C208.583111 826.794667 341.333333 910.222222 512 910.222222s303.416889-83.427556 303.416889-189.639111v-235.121778l132.721778-72.078222c11.377778-7.566222 18.972444-18.944 18.972444-34.133333 0-13.255111-7.594667-26.538667-18.972444-34.133334l-417.166223-227.555555c-11.377778-5.688889-24.661333-5.688889-36.039111 0l-417.194666 227.555555c-12.629333 11.377778-18.944 17.720889-18.944 18.972445a116.337778 116.337778 0 0 0-1.905778 15.160889v18.403555c3.783111 2.56 29.070222 17.92 75.861333 46.08z" fill="#333333" /></svg>