<?xml version="1.0" standalone="no"?><!DOCTYPE svg PUBLIC "-//W3C//DTD SVG 1.1//EN" "http://www.w3.org/Graphics/SVG/1.1/DTD/svg11.dtd"><svg class="icon" width="200px" height="200.00px" viewBox="0 0 1024 1024" version="1.1" xmlns="http://www.w3.org/2000/svg"><path fill="#333333" d="M180.736 448.512 180.736 448.512l-121.344 0c-16.384 0-29.184-13.312-29.184-29.184s13.312-29.184 29.184-29.184l0 0 121.344 0c16.384 0 29.184 13.312 29.184 29.184S196.608 448.512 180.736 448.512zM967.68 448.512 967.68 448.512l-121.344 0c-16.384 0-29.184-13.312-29.184-29.184s13.312-29.184 29.184-29.184l0 0 121.344 0c16.384 0 29.184 13.312 29.184 29.184S984.064 448.512 967.68 448.512zM182.272 444.928c-1.536 0-3.072 0-5.12-0.512-15.872-2.56-26.624-17.92-24.064-33.792L178.688 261.12c2.56-42.496 32.768-119.296 128.512-119.296l224.256 0c16.384 0 29.184 13.312 29.184 29.184s-13.312 29.184-29.184 29.184L307.2 200.192c-65.024 0-69.632 58.368-70.144 65.024 0 1.024 0 2.56-0.512 3.584l-25.6 151.04C208.896 434.688 196.608 444.928 182.272 444.928zM846.336 444.928c-13.824 0-26.624-10.24-28.672-24.576l-25.6-151.04c0-1.024-0.512-2.048-0.512-3.584-0.512-10.752-7.168-65.024-70.144-65.024L497.664 200.704c-16.384 0-29.184-13.312-29.184-29.184s13.312-29.184 29.184-29.184L721.92 142.336c95.744 0 125.44 76.8 128.512 119.296l25.088 149.504c2.56 15.872-8.192 31.232-24.064 33.792C849.92 444.928 847.872 444.928 846.336 444.928zM895.488 787.456 133.632 787.456c-40.448 0-73.216-32.768-73.216-73.216l0-159.744c0-40.448 32.768-73.216 73.216-73.216l761.856 0c40.448 0 73.216 32.768 73.216 73.216l0 159.744C968.704 754.688 935.936 787.456 895.488 787.456zM133.632 540.16c-8.192 0-14.848 6.656-14.848 14.848l0 159.744c0 8.192 6.656 14.848 14.848 14.848l761.856 0c8.192 0 14.848-6.656 14.848-14.848l0-159.744c0-8.192-6.656-14.848-14.848-14.848L133.632 540.16zM258.56 718.848c-47.616 0-86.016-38.4-86.016-86.016 0-47.616 38.4-86.016 86.016-86.016s86.016 38.4 86.016 86.016C344.576 680.448 305.664 718.848 258.56 718.848zM258.56 605.184c-15.36 0-27.648 12.288-27.648 27.648 0 15.36 12.288 27.648 27.648 27.648 15.36 0 27.648-12.288 27.648-27.648C285.696 617.472 273.408 605.184 258.56 605.184zM792.064 718.848c-47.616 0-86.016-38.4-86.016-86.016 0-47.616 38.4-86.016 86.016-86.016 47.616 0 86.016 38.4 86.016 86.016C878.08 680.448 839.68 718.848 792.064 718.848zM792.064 605.184c-15.36 0-27.648 12.288-27.648 27.648 0 15.36 12.288 27.648 27.648 27.648s27.648-12.288 27.648-27.648C819.712 617.472 807.424 605.184 792.064 605.184zM285.184 885.248 212.48 885.248c-32.768 0-59.392-26.624-59.392-59.392L153.088 778.24c0-16.384 13.312-29.184 29.184-29.184s29.184 13.312 29.184 29.184l0 47.616 73.728 0.512 0.512-48.128c0-16.384 13.312-29.184 29.184-29.184 16.384 0 29.184 13.312 29.184 29.184l0 47.616C344.576 858.624 317.952 885.248 285.184 885.248zM828.928 885.248l-73.216 0c-32.768 0-59.392-26.624-59.392-59.392L696.32 778.24c0-16.384 13.312-29.184 29.184-29.184s29.184 13.312 29.184 29.184l0 47.616 73.728 0.512 0.512-48.128c0-16.384 13.312-29.184 29.184-29.184s29.184 13.312 29.184 29.184l0 47.616C887.808 858.624 861.184 885.248 828.928 885.248zM511.488 461.824c-16.384 0-29.184-13.312-29.184-29.184l0-261.12c0-16.384 13.312-29.184 29.184-29.184 16.384 0 29.184 13.312 29.184 29.184l0 261.12C540.672 448.512 527.872 461.824 511.488 461.824zM280.576 413.184C280.576 413.184 280.576 413.184 280.576 413.184c-16.384 0-29.184-13.312-29.184-29.184l0-56.832c0-16.384 13.312-29.184 29.184-29.184 0 0 0 0 0 0 16.384 0 29.184 13.312 29.184 29.184l0 56.832C310.272 400.384 296.96 413.184 280.576 413.184zM590.336 462.848c-3.072 0-5.632-0.512-8.704-1.024-15.36-4.608-24.064-20.992-19.456-36.352 15.36-50.176 60.416-83.968 113.152-83.968 52.224 0 97.28 33.28 112.64 82.944 4.608 15.36-3.584 31.744-19.456 36.864-15.36 4.608-31.744-3.584-36.864-19.456-7.68-25.088-30.72-41.984-56.832-41.984-26.112 0-49.664 17.408-56.832 41.984C614.912 454.656 603.136 462.848 590.336 462.848zM645.12 704.512 402.944 704.512c-16.384 0-29.184-13.312-29.184-29.184s13.312-29.184 29.184-29.184L645.12 646.144c16.384 0 29.184 13.312 29.184 29.184S661.504 704.512 645.12 704.512zM645.12 631.296 402.944 631.296c-16.384 0-29.184-13.312-29.184-29.184s13.312-29.184 29.184-29.184L645.12 572.928c16.384 0 29.184 13.312 29.184 29.184S661.504 631.296 645.12 631.296z" /></svg>