<?xml version="1.0" standalone="no"?><!DOCTYPE svg PUBLIC "-//W3C//DTD SVG 1.1//EN" "http://www.w3.org/Graphics/SVG/1.1/DTD/svg11.dtd"><svg class="icon" width="200px" height="200.00px" viewBox="0 0 1024 1024" version="1.1" xmlns="http://www.w3.org/2000/svg"><path fill="#333333" d="M860.1088 245.7088a81.75616 81.75616 0 0 0-81.92-81.92H245.80096a81.75616 81.75616 0 0 0-81.92 81.92v532.48a81.77664 81.77664 0 0 0 81.92 82.0224h532.39808a81.77664 81.77664 0 0 0 81.92-82.0224v-532.48z m-102.4 102.4a61.44 61.44 0 1 1-61.44-61.44 61.44 61.44 0 0 1 61.44 61.44z m0 327.68a61.44 61.44 0 1 1-61.44-61.44 61.44 61.44 0 0 1 61.44 61.44z m-184.32-327.68a61.44 61.44 0 1 1-61.44-61.44 61.44 61.44 0 0 1 61.44 61.44z m0 327.68a61.44 61.44 0 1 1-61.44-61.44 61.44 61.44 0 0 1 61.44 61.44z m-184.32-327.68a61.44 61.44 0 1 1-61.44-61.44 61.44 61.44 0 0 1 61.44 61.44z m0 327.68a61.44 61.44 0 1 1-61.44-61.44 61.44 61.44 0 0 1 61.44 61.44z" /></svg>