<?xml version="1.0" standalone="no"?><!DOCTYPE svg PUBLIC "-//W3C//DTD SVG 1.1//EN" "http://www.w3.org/Graphics/SVG/1.1/DTD/svg11.dtd"><svg class="icon" width="200px" height="195.98px" viewBox="0 0 1045 1024" version="1.1" xmlns="http://www.w3.org/2000/svg"><path fill="#333333" d="M661.333333 96H405.333333a117.333333 117.333333 0 0 0-117.333333 117.333333v117.333334h490.666667V213.333333A117.333333 117.333333 0 0 0 661.333333 96z m0 64l3.498667 0.106667A53.333333 53.333333 0 0 1 714.666667 213.333333v53.333334h-362.666667V213.333333A53.333333 53.333333 0 0 1 405.333333 160h256z"  /><path fill="#333333" d="M832 266.666667H234.666667A117.333333 117.333333 0 0 0 117.333333 384v426.666667a117.333333 117.333333 0 0 0 117.333334 117.333333h597.333333a117.333333 117.333333 0 0 0 117.333333-117.333333V384a117.333333 117.333333 0 0 0-117.333333-117.333333z m-597.333333 64h597.333333a53.333333 53.333333 0 0 1 53.333333 53.333333v426.666667a53.333333 53.333333 0 0 1-53.333333 53.333333H234.666667A53.333333 53.333333 0 0 1 181.333333 810.666667V384a53.333333 53.333333 0 0 1 53.333334-53.333333z"  /><path fill="#333333" d="M533.333333 437.333333a32 32 0 0 1 31.850667 28.928L565.333333 469.333333v256a32 32 0 0 1-63.850666 3.072L501.333333 725.333333V469.333333a32 32 0 0 1 32-32z"  /><path fill="#333333" d="M661.333333 565.333333a32 32 0 0 1 3.072 63.850667L661.333333 629.333333H405.333333a32 32 0 0 1-3.072-63.850666L405.333333 565.333333h256z"  /></svg>